<?xml version="1.0" encoding="utf-8"?>
<!-- Generator: Adobe Illustrator 16.0.0, SVG Export Plug-In . SVG Version: 6.00 Build 0)  -->
<!DOCTYPE svg PUBLIC "-//W3C//DTD SVG 1.1//EN" "http://www.w3.org/Graphics/SVG/1.1/DTD/svg11.dtd">
<svg version="1.1" xmlns="http://www.w3.org/2000/svg" xmlns:xlink="http://www.w3.org/1999/xlink" x="0px" y="0px"
	 width="620.787px" height="799.37px" viewBox="0 0 620.787 799.37" enable-background="new 0 0 620.787 799.37"
	 xml:space="preserve">
<g id="Guides">
</g>
<g id="Bunting">
	<g>
		
			<polyline opacity="0.85" fill="#COLOUR1#" stroke="#COLOUR1#" stroke-width="5" stroke-miterlimit="10" enable-background="new    " points="
			114.647,187.448 119.985,212.844 102.281,193.598 		"/>
		
			<polyline opacity="0.85" fill="#COLOUR1#" stroke="#COLOUR1#" stroke-width="5" stroke-miterlimit="10" enable-background="new    " points="
			87.804,199.917 90.001,225.77 74.789,204.512 		"/>
		
			<polyline opacity="0.85" fill="#COLOUR1#" stroke="#COLOUR1#" stroke-width="5" stroke-miterlimit="10" enable-background="new    " points="
			57.967,209.513 57.457,235.46 44.551,212.724 		"/>
		
			<polyline opacity="0.85" fill="#COLOUR1#" stroke="#COLOUR1#" stroke-width="5" stroke-miterlimit="10" enable-background="new    " points="
			15.221,216.716 25.263,240.851 28.447,213.655 		"/>
		<path fill="none" stroke="#COLOUR1#" stroke-width="5" stroke-miterlimit="10" d="M0,216.737
			c23.741,0.028,111.737-7.664,176.712-79.172"/>
		
			<polyline opacity="0.85" fill="#COLOUR1#" stroke="#COLOUR1#" stroke-width="5" stroke-miterlimit="10" enable-background="new    " points="
			141,171.609 148.884,196.768 129.409,179.329 		"/>
		
			<polyline opacity="0.85" fill="#COLOUR1#" stroke="#COLOUR1#" stroke-width="5" stroke-miterlimit="10" enable-background="new    " points="
			163.967,152.635 175.516,175.876 153.548,161.688 		"/>
	</g>
	<g>
		
			<polyline opacity="0.85" fill="#COLOUR2#" stroke="#COLOUR2#" stroke-width="5" stroke-miterlimit="10" enable-background="new    " points="
			415.632,187.214 420.971,212.61 403.266,193.364 		"/>
		
			<polyline opacity="0.85" fill="#COLOUR2#" stroke="#COLOUR2#" stroke-width="5" stroke-miterlimit="10" enable-background="new    " points="
			388.789,199.684 390.986,225.536 375.773,204.278 		"/>
		
			<polyline opacity="0.85" fill="#COLOUR2#" stroke="#COLOUR2#" stroke-width="5" stroke-miterlimit="10" enable-background="new    " points="
			358.951,209.279 358.441,235.227 345.535,212.49 		"/>
		
			<polyline opacity="0.85" fill="#COLOUR2#" stroke="#COLOUR2#" stroke-width="5" stroke-miterlimit="10" enable-background="new    " points="
			316.205,216.482 326.248,240.617 329.432,213.421 		"/>
		<path fill="none" stroke="#COLOUR2#" stroke-width="5" stroke-miterlimit="10" d="M300.985,216.503
			c23.741,0.028,111.738-7.664,176.712-79.172"/>
		
			<polyline opacity="0.85" fill="#COLOUR2#" stroke="#COLOUR2#" stroke-width="5" stroke-miterlimit="10" enable-background="new    " points="
			441.984,171.375 449.869,196.534 430.395,179.095 		"/>
		
			<polyline opacity="0.85" fill="#COLOUR2#" stroke="#COLOUR2#" stroke-width="5" stroke-miterlimit="10" enable-background="new    " points="
			464.951,152.401 476.5,175.642 454.533,161.455 		"/>
	</g>
	<g>
		
			<polyline opacity="0.85" fill="#COLOUR3#" stroke="#COLOUR3#" stroke-width="5" stroke-miterlimit="10" enable-background="new    " points="
			114.624,448.006 119.962,473.402 102.258,454.156 		"/>
		
			<polyline opacity="0.85" fill="#COLOUR3#" stroke="#COLOUR3#" stroke-width="5" stroke-miterlimit="10" enable-background="new    " points="
			87.781,460.477 89.979,486.328 74.766,465.07 		"/>
		
			<polyline opacity="0.85" fill="#COLOUR3#" stroke="#COLOUR3#" stroke-width="5" stroke-miterlimit="10" enable-background="new    " points="
			57.944,470.072 57.434,496.02 44.528,473.283 		"/>
		
			<polyline opacity="0.85" fill="#COLOUR3#" stroke="#COLOUR3#" stroke-width="5" stroke-miterlimit="10" enable-background="new    " points="
			15.198,477.275 25.24,501.41 28.424,474.214 		"/>
		<path fill="none" stroke="#COLOUR3#" stroke-width="5" stroke-miterlimit="10" d="M-0.023,477.296
			c23.741,0.028,111.737-7.663,176.712-79.172"/>
		
			<polyline opacity="0.85" fill="#COLOUR3#" stroke="#COLOUR3#" stroke-width="5" stroke-miterlimit="10" enable-background="new    " points="
			140.977,432.168 148.861,457.326 129.386,439.887 		"/>
		
			<polyline opacity="0.85" fill="#COLOUR3#" stroke="#COLOUR3#" stroke-width="5" stroke-miterlimit="10" enable-background="new    " points="
			163.944,413.193 175.493,436.435 153.525,422.247 		"/>
	</g>
	<g>
		
			<polyline opacity="0.85" fill="#COLOUR4#" stroke="#COLOUR4#" stroke-width="5" stroke-miterlimit="10" enable-background="new    " points="
			415.609,447.772 420.947,473.168 403.242,453.922 		"/>
		
			<polyline opacity="0.85" fill="#COLOUR4#" stroke="#COLOUR4#" stroke-width="5" stroke-miterlimit="10" enable-background="new    " points="
			388.766,460.242 390.963,486.095 375.75,464.837 		"/>
		
			<polyline opacity="0.85" fill="#COLOUR4#" stroke="#COLOUR4#" stroke-width="5" stroke-miterlimit="10" enable-background="new    " points="
			358.928,469.838 358.418,495.785 345.512,473.049 		"/>
		
			<polyline opacity="0.85" fill="#COLOUR4#" stroke="#COLOUR4#" stroke-width="5" stroke-miterlimit="10" enable-background="new    " points="
			316.182,477.041 326.225,501.176 329.408,473.98 		"/>
		<path fill="none" stroke="#COLOUR4#" stroke-width="5" stroke-miterlimit="10" d="M300.961,477.062
			c23.742,0.027,111.738-7.664,176.712-79.172"/>
		
			<polyline opacity="0.85" fill="#COLOUR4#" stroke="#COLOUR4#" stroke-width="5" stroke-miterlimit="10" enable-background="new    " points="
			441.961,431.934 449.846,457.093 430.371,439.653 		"/>
		
			<polyline opacity="0.85" fill="#COLOUR4#" stroke="#COLOUR4#" stroke-width="5" stroke-miterlimit="10" enable-background="new    " points="
			464.928,412.959 476.477,436.201 454.51,422.014 		"/>
	</g>
	<g>
		
			<polyline opacity="0.85" fill="#COLOUR5#" stroke="#COLOUR5#" stroke-width="5" stroke-miterlimit="10" enable-background="new    " points="
			114.647,705.314 119.985,730.711 102.281,711.465 		"/>
		
			<polyline opacity="0.85" fill="#COLOUR5#" stroke="#COLOUR5#" stroke-width="5" stroke-miterlimit="10" enable-background="new    " points="
			87.804,717.785 90.001,743.637 74.789,722.379 		"/>
		
			<polyline opacity="0.85" fill="#COLOUR5#" stroke="#COLOUR5#" stroke-width="5" stroke-miterlimit="10" enable-background="new    " points="
			57.967,727.381 57.457,753.328 44.551,730.592 		"/>
		
			<polyline opacity="0.85" fill="#COLOUR5#" stroke="#COLOUR5#" stroke-width="5" stroke-miterlimit="10" enable-background="new    " points="
			15.221,734.584 25.263,758.719 28.447,731.522 		"/>
		<path fill="none" stroke="#COLOUR5#" stroke-width="5" stroke-miterlimit="10" d="M0,734.604
			c23.741,0.028,111.737-7.663,176.712-79.172"/>
		
			<polyline opacity="0.85" fill="#COLOUR5#" stroke="#COLOUR5#" stroke-width="5" stroke-miterlimit="10" enable-background="new    " points="
			141,689.477 148.884,714.635 129.409,697.195 		"/>
		
			<polyline opacity="0.85" fill="#COLOUR5#" stroke="#COLOUR5#" stroke-width="5" stroke-miterlimit="10" enable-background="new    " points="
			163.967,670.502 175.516,693.743 153.548,679.556 		"/>
	</g>
	<g>
		
			<polyline opacity="0.85" fill="#COLOUR6#" stroke="#COLOUR6#" stroke-width="5" stroke-miterlimit="10" enable-background="new    " points="
			415.633,705.081 420.971,730.477 403.266,711.23 		"/>
		
			<polyline opacity="0.85" fill="#COLOUR6#" stroke="#COLOUR6#" stroke-width="5" stroke-miterlimit="10" enable-background="new    " points="
			388.789,717.551 390.986,743.403 375.773,722.146 		"/>
		
			<polyline opacity="0.85" fill="#COLOUR6#" stroke="#COLOUR6#" stroke-width="5" stroke-miterlimit="10" enable-background="new    " points="
			358.951,727.146 358.441,753.094 345.535,730.357 		"/>
		
			<polyline opacity="0.85" fill="#COLOUR6#" stroke="#COLOUR6#" stroke-width="5" stroke-miterlimit="10" enable-background="new    " points="
			316.205,734.35 326.248,758.484 329.432,731.289 		"/>
		<path fill="none" stroke="#COLOUR6#" stroke-width="5" stroke-miterlimit="10" d="M300.984,734.371
			c23.743,0.027,111.739-7.664,176.713-79.172"/>
		
			<polyline opacity="0.85" fill="#COLOUR6#" stroke="#COLOUR6#" stroke-width="5" stroke-miterlimit="10" enable-background="new    " points="
			441.984,689.242 449.869,714.401 430.395,696.962 		"/>
		
			<polyline opacity="0.85" fill="#COLOUR6#" stroke="#COLOUR6#" stroke-width="5" stroke-miterlimit="10" enable-background="new    " points="
			464.951,670.268 476.5,693.51 454.533,679.322 		"/>
	</g>
</g>
<g id="Mask">
	<rect x="9.733" y="9.187" fill="#FFFFFF" width="300.099" height="130.726"/>
	<rect x="259.865" y="139.975" fill="#FFFFFF" width="50.154" height="129.829"/>
	<rect x="310.687" y="9.187" fill="#FFFFFF" width="300.099" height="130.726"/>
	<rect x="10.161" y="269.741" fill="#FFFFFF" width="300.099" height="130.726"/>
	<rect x="311.115" y="269.741" fill="#FFFFFF" width="300.099" height="130.726"/>
	<rect x="259.865" y="399.685" fill="#FFFFFF" width="50.155" height="129.829"/>
	<rect x="9.493" y="527.429" fill="#FFFFFF" width="300.099" height="130.726"/>
	<rect x="310.447" y="527.429" fill="#FFFFFF" width="300.099" height="130.726"/>
	<rect x="259.865" y="658.154" fill="#FFFFFF" width="50.155" height="131.294"/>
</g>
<g id="Monogram">
	<g>
		<path opacity="0.85" fill="#7E54A2" enable-background="new    " d="M148.679,72.54c0-12.741,4.4-23.579,13.201-32.578
			c8.735-8.998,19.44-13.465,31.986-13.465c12.61,0,23.252,4.532,31.987,13.597c8.736,8.998,13.071,19.836,13.071,32.446
			c0,12.547-4.335,23.318-13.071,32.318c-8.733,8.996-19.377,13.462-31.987,13.462c-12.546,0-23.249-4.464-31.986-13.462
			C153.078,95.858,148.679,85.087,148.679,72.54"/>
		<path opacity="0.82" fill="#60C08B" enable-background="new    " d="M80.64,72.541c0-12.744,4.401-23.58,13.2-32.579
			c8.735-8.998,19.443-13.465,31.988-13.465c12.611,0,23.25,4.532,31.986,13.597c8.737,8.997,13.073,19.836,13.073,32.447
			c0,12.545-4.336,23.316-13.073,32.314c-8.734,8.998-19.375,13.465-31.986,13.465c-12.545,0-23.252-4.466-31.988-13.465
			C85.041,95.857,80.64,85.085,80.64,72.541"/>
		<path fill="#FFFFFF" stroke="#FFFFFF" stroke-width="0.75" stroke-miterlimit="10" d="M164.885,74.981l-0.215,0.155
			c-0.587,0.411-1.994,1.645-1.994,2.798c0,0.391,0.234,0.762,0.626,0.762c0.879,0,1.798-1.31,1.798-2.522
			C165.1,75.725,165.023,75.333,164.885,74.981 M165.317,74.375l0.117-0.077c0.821-0.548,1.466-1.115,1.604-1.233
			c0.704-0.625,1.25-1.017,1.25-2.071c0-0.472-0.508-0.745-0.979-0.745c-1.172,0-2.229,1.096-3.323,2.25
			C164.516,73.084,165.023,73.631,165.317,74.375z M162.228,69.114c0.88-0.449,1.702-0.899,2.424-1.35
			c1.876-1.134,3.187-2.542,3.187-3.852c0-0.547-0.508-0.919-1.055-0.919c-2.7,0-4.615,2.817-4.615,5.182
			c0,0.332,0.021,0.645,0.06,0.919V69.114z M158.724,82.081c-1.172,0.763-2.384,1.546-4.106,1.546c-2.188,0-3.872-1.86-3.872-4.049
			c0-2.581,1.996-5.066,4.694-6.805c1.623-1.038,3.48-1.996,5.263-2.895c-0.041-0.195-0.06-0.411-0.06-0.627
			c0-2.033,2.601-6.512,6.062-6.512c0.765,0,1.624,0.586,1.624,1.114c0,1.703-1.801,3.031-4.126,4.479
			c-0.628,0.39-1.292,0.763-1.975,1.115c0.233,1.33,0.86,2.152,1.504,2.895c1.175-1.212,2.29-2.328,3.815-2.328
			c0.586,0,1.211,0.314,1.211,0.9c0,1.134-0.604,1.721-1.447,2.347c-0.587,0.449-1.289,0.919-1.955,1.389
			c0.117,0.352,0.177,0.743,0.177,1.193c0,1.585-0.998,3.168-2.584,3.168c-0.487,0-0.856-0.41-0.856-0.898
			c0-1.095,1.248-2.327,2.639-3.344c-0.312-0.627-0.822-1.135-1.371-1.622c-1.936,2.209-3.676,5.376-6.647,5.376
			c-0.724,0-1.565-0.273-1.565-0.996c0-0.432,0.195-0.9,0.625-0.9c0.373,0,0.727,0.253,0.727,0.626c0,0.313-0.236,0.605-0.451,0.665
			c0.061,0.194,0.488,0.39,0.861,0.39c2.698,0,4.244-3.187,6.238-5.34c-0.956-0.821-1.994-1.603-2.346-2.795
			c-2.074,1.038-4.226,2.093-5.947,3.5c-2.053,1.682-3.52,3.541-3.52,6.219c0,1.838,1.408,3.443,3.248,3.443
			c1.643,0,3.225-0.802,3.989-1.371L158.724,82.081z"/>
		<path fill="#FFFFFF" stroke="#FFFFFF" stroke-width="0.75" stroke-miterlimit="10" d="M181.43,84.374
			c3.328-3.45,6.819-7.353,8.338-9.283l1.521-2.054h5.83c-3.45,3.778-4.928,5.422-7.104,7.516
			c-5.545,5.257-10.391,8.666-11.707,8.666c-0.367,0-0.531-0.125-0.531-0.452c0-0.698,1.396-2.013,3.695-4.395h-0.041V84.374z
			 M209.359,72.379l-10.721-0.042c0.492-0.452,0.656-0.616,1.354-1.312c10.062-10.186,15.318-13.841,22.877-13.841
			c4.725,0,7.148,2.053,7.148,5.996c0,5.297-5.053,9.856-10.761,9.856c-3.409,0-5.257-1.356-5.257-3.944
			c0-3.532,4.188-6.859,9.076-7.146v-0.37c-5.424,0.37-9.897,3.737-9.897,7.475c0,2.753,2.175,4.396,5.873,4.396
			c6.57,0,12.483-4.682,12.483-9.856c0-4.271-3.201-6.817-8.666-6.817c-3.738,0-8.91,0.287-18.687,9.24
			c-5.462,4.971-6.448,6.325-6.448,6.325h-5.995c1.724-2.586,4.928-7.023,4.928-11.047c0-2.917-1.602-4.517-4.477-4.517
			c-4.106,0-9.403,4.558-9.403,8.255c0,1.56,1.025,2.793,2.504,2.793c2.094,0,4.271-1.604,5.748-4.312l-0.205-0.083
			c-1.643,2.587-3.614,4.025-5.463,4.025c-1.23,0-1.928-0.862-1.928-2.216c0-3.081,4.846-8.132,8.666-8.132
			c1.97,0,2.956,0.862,2.956,2.504c0,2.262-0.862,4.643-3.12,8.545c-0.986,1.765-1.438,2.465-2.629,4.188l-4.723,0.125
			c-0.902,0.041-1.439,0.081-2.713,0.165l-0.164,0.205c2.178,0,3.082,0,4.887,0.082c0.986,0,1.562,0.081,2.342,0.081l-3.614,4.683
			c-3.86,5.173-8.213,8.993-8.213,11.006c0,0.493,0.452,0.905,1.026,0.905l0.122-0.043c1.849-0.122,7.064-4.147,8.913-5.749
			c2.342-1.971,6.285-5.75,10.967-10.883h8.667c0.657,0,1.108,0,2.302-0.082L209.359,72.379z"/>
		<path fill="#FFFFFF" stroke="#FFFFFF" stroke-width="0.75" stroke-miterlimit="10" d="M139.531,60.512
			c-2.958,0-6.242-0.658-9.939-1.973c2.176-0.575,4.394-0.821,7.188-0.821c3.902,0,6.324,0.616,6.324,1.562
			C143.104,60.059,141.75,60.512,139.531,60.512 M111.027,76.159c-1.561,2.67-3.203,4.807-5.011,6.243
			c-1.313-1.808-1.849-3.901-1.849-6.654c0-9.282,8.379-17.7,17.7-17.7c2.013,0,3.903,0.205,5.586,0.656
			c-1.931,0.782-4.106,2.054-5.832,3.409c-2.054,1.602-4.353,4.066-6.078,6.407C114.189,70.368,112.795,73.16,111.027,76.159z
			 M140.107,61.004c2.505,0,4.065-0.615,4.065-1.603c0-1.272-3.038-2.134-7.518-2.134c-4.022,0-7.392,0.821-8.089,0.942
			c0,0-4.273-0.697-6.037-0.697c-5.34,0-9.366,1.562-13.309,5.257c-3.943,3.696-5.791,7.64-5.791,12.403
			c0,4.025,1.438,6.696,2.057,7.64c-4.109,3.285-7.229,4.642-10.559,4.642c-1.808,0-2.875-0.371-4.436-1.52l-0.166,0.206
			c1.07,1.231,2.674,1.807,4.848,1.807c3.287,0,7.805-1.849,10.844-4.435c1.972,2.422,3.739,3.327,6.324,4.394
			c2.013,0.821,4.602,1.192,7.148,1.192c10.677,0,20.906-7.681,20.906-15.647c0-4.725-3.164-7.599-8.297-7.599
			c-3.08,0-6.49,1.232-9.117,3.285c-2.465,1.889-3.9,4.354-3.9,6.776c0,2.671,1.969,4.436,4.887,4.436
			c3.285,0,6.404-2.507,7.146-5.75l-0.286-0.081c-0.864,3.08-3.82,5.38-6.818,5.38c-2.465,0-4.148-1.52-4.148-3.697
			c0-2.299,1.396-4.763,3.778-6.694c2.423-1.971,5.586-3.162,8.296-3.162c4.025,0,6.448,2.217,6.448,5.954
			c0,3.615-2.628,8.337-6.57,11.747c-3.534,3.08-7.681,4.518-12.569,4.518c-5.421,0-10.882-2.261-12.773-5.504
			c3.985-3.287,5.463-5.053,9.201-11.09c3.081-4.968,4.477-6.94,6.408-8.788c0.902-0.903,1.889-1.725,2.915-2.422
			c1.026-0.698,1.808-1.232,3.489-1.849C128.482,58.91,134.439,61.004,140.107,61.004z"/>
	</g>
	<g>
		<path opacity="0.85" fill="#7E54A2" enable-background="new    " d="M449.602,72.54c0-12.741,4.4-23.579,13.201-32.578
			c8.735-8.998,19.44-13.465,31.986-13.465c12.61,0,23.252,4.532,31.987,13.597c8.736,8.998,13.071,19.836,13.071,32.446
			c0,12.547-4.335,23.318-13.071,32.318c-8.733,8.996-19.377,13.462-31.987,13.462c-12.546,0-23.249-4.464-31.986-13.462
			C454.001,95.858,449.602,85.087,449.602,72.54"/>
		<path opacity="0.82" fill="#60C08B" enable-background="new    " d="M381.562,72.541c0-12.744,4.401-23.58,13.2-32.579
			c8.735-8.998,19.443-13.465,31.988-13.465c12.611,0,23.25,4.532,31.986,13.597c8.737,8.997,13.073,19.836,13.073,32.447
			c0,12.545-4.336,23.316-13.073,32.314c-8.734,8.998-19.375,13.465-31.986,13.465c-12.545,0-23.252-4.466-31.988-13.465
			C385.964,95.857,381.562,85.085,381.562,72.541"/>
		<path fill="#FFFFFF" stroke="#FFFFFF" stroke-width="0.75" stroke-miterlimit="10" d="M465.808,74.981l-0.215,0.155
			c-0.587,0.411-1.994,1.645-1.994,2.798c0,0.391,0.234,0.762,0.626,0.762c0.879,0,1.798-1.31,1.798-2.522
			C466.022,75.725,465.946,75.333,465.808,74.981 M466.24,74.375l0.117-0.077c0.821-0.548,1.466-1.115,1.604-1.233
			c0.704-0.625,1.25-1.017,1.25-2.071c0-0.472-0.508-0.745-0.979-0.745c-1.172,0-2.229,1.096-3.323,2.25
			C465.438,73.084,465.946,73.631,466.24,74.375z M463.15,69.114c0.88-0.449,1.702-0.899,2.424-1.35
			c1.876-1.134,3.187-2.542,3.187-3.852c0-0.547-0.508-0.919-1.055-0.919c-2.7,0-4.615,2.817-4.615,5.182
			c0,0.332,0.021,0.645,0.06,0.919V69.114z M459.646,82.081c-1.172,0.763-2.384,1.546-4.106,1.546c-2.188,0-3.872-1.86-3.872-4.049
			c0-2.581,1.996-5.066,4.694-6.805c1.623-1.038,3.48-1.996,5.263-2.895c-0.041-0.195-0.06-0.411-0.06-0.627
			c0-2.033,2.601-6.512,6.062-6.512c0.765,0,1.624,0.586,1.624,1.114c0,1.703-1.801,3.031-4.126,4.479
			c-0.628,0.39-1.292,0.763-1.975,1.115c0.233,1.33,0.86,2.152,1.504,2.895c1.175-1.212,2.29-2.328,3.815-2.328
			c0.586,0,1.211,0.314,1.211,0.9c0,1.134-0.604,1.721-1.447,2.347c-0.587,0.449-1.289,0.919-1.955,1.389
			c0.117,0.352,0.177,0.743,0.177,1.193c0,1.585-0.998,3.168-2.584,3.168c-0.487,0-0.856-0.41-0.856-0.898
			c0-1.095,1.248-2.327,2.639-3.344c-0.312-0.627-0.822-1.135-1.371-1.622c-1.936,2.209-3.676,5.376-6.647,5.376
			c-0.724,0-1.565-0.273-1.565-0.996c0-0.432,0.195-0.9,0.625-0.9c0.373,0,0.727,0.253,0.727,0.626c0,0.313-0.236,0.605-0.451,0.665
			c0.061,0.194,0.488,0.39,0.861,0.39c2.698,0,4.244-3.187,6.238-5.34c-0.956-0.821-1.994-1.603-2.346-2.795
			c-2.074,1.038-4.226,2.093-5.947,3.5c-2.053,1.682-3.52,3.541-3.52,6.219c0,1.838,1.408,3.443,3.248,3.443
			c1.643,0,3.225-0.802,3.989-1.371L459.646,82.081z"/>
		<path fill="#FFFFFF" stroke="#FFFFFF" stroke-width="0.75" stroke-miterlimit="10" d="M482.353,84.374
			c3.328-3.45,6.819-7.353,8.338-9.283l1.521-2.054h5.83c-3.45,3.778-4.928,5.422-7.104,7.516
			c-5.545,5.257-10.391,8.666-11.707,8.666c-0.367,0-0.531-0.125-0.531-0.452c0-0.698,1.396-2.013,3.695-4.395h-0.041V84.374z
			 M510.282,72.379l-10.721-0.042c0.492-0.452,0.656-0.616,1.354-1.312c10.062-10.186,15.318-13.841,22.877-13.841
			c4.725,0,7.148,2.053,7.148,5.996c0,5.297-5.053,9.856-10.761,9.856c-3.409,0-5.257-1.356-5.257-3.944
			c0-3.532,4.188-6.859,9.076-7.146v-0.37c-5.424,0.37-9.897,3.737-9.897,7.475c0,2.753,2.175,4.396,5.873,4.396
			c6.57,0,12.483-4.682,12.483-9.856c0-4.271-3.201-6.817-8.666-6.817c-3.738,0-8.91,0.287-18.687,9.24
			c-5.462,4.971-6.448,6.325-6.448,6.325h-5.995c1.724-2.586,4.928-7.023,4.928-11.047c0-2.917-1.602-4.517-4.477-4.517
			c-4.106,0-9.403,4.558-9.403,8.255c0,1.56,1.025,2.793,2.504,2.793c2.094,0,4.271-1.604,5.748-4.312l-0.205-0.083
			c-1.643,2.587-3.614,4.025-5.463,4.025c-1.23,0-1.928-0.862-1.928-2.216c0-3.081,4.846-8.132,8.666-8.132
			c1.97,0,2.956,0.862,2.956,2.504c0,2.262-0.862,4.643-3.12,8.545c-0.986,1.765-1.438,2.465-2.629,4.188l-4.723,0.125
			c-0.902,0.041-1.439,0.081-2.713,0.165l-0.164,0.205c2.178,0,3.082,0,4.887,0.082c0.986,0,1.562,0.081,2.342,0.081l-3.614,4.683
			c-3.86,5.173-8.213,8.993-8.213,11.006c0,0.493,0.452,0.905,1.026,0.905l0.122-0.043c1.849-0.122,7.064-4.147,8.913-5.749
			c2.342-1.971,6.285-5.75,10.967-10.883h8.667c0.657,0,1.108,0,2.302-0.082L510.282,72.379z"/>
		<path fill="#FFFFFF" stroke="#FFFFFF" stroke-width="0.75" stroke-miterlimit="10" d="M440.454,60.512
			c-2.958,0-6.242-0.658-9.939-1.973c2.176-0.575,4.394-0.821,7.188-0.821c3.902,0,6.324,0.616,6.324,1.562
			C444.026,60.059,442.673,60.512,440.454,60.512 M411.95,76.159c-1.561,2.67-3.203,4.807-5.011,6.243
			c-1.313-1.808-1.849-3.901-1.849-6.654c0-9.282,8.379-17.7,17.7-17.7c2.013,0,3.903,0.205,5.586,0.656
			c-1.931,0.782-4.106,2.054-5.832,3.409c-2.054,1.602-4.353,4.066-6.078,6.407C415.112,70.368,413.718,73.16,411.95,76.159z
			 M441.03,61.004c2.505,0,4.065-0.615,4.065-1.603c0-1.272-3.038-2.134-7.518-2.134c-4.022,0-7.392,0.821-8.089,0.942
			c0,0-4.273-0.697-6.037-0.697c-5.34,0-9.366,1.562-13.309,5.257c-3.943,3.696-5.791,7.64-5.791,12.403
			c0,4.025,1.438,6.696,2.057,7.64c-4.109,3.285-7.229,4.642-10.559,4.642c-1.808,0-2.875-0.371-4.436-1.52l-0.166,0.206
			c1.07,1.231,2.674,1.807,4.848,1.807c3.287,0,7.805-1.849,10.844-4.435c1.972,2.422,3.739,3.327,6.324,4.394
			c2.013,0.821,4.602,1.192,7.148,1.192c10.677,0,20.906-7.681,20.906-15.647c0-4.725-3.164-7.599-8.297-7.599
			c-3.08,0-6.49,1.232-9.117,3.285c-2.465,1.889-3.9,4.354-3.9,6.776c0,2.671,1.969,4.436,4.887,4.436
			c3.285,0,6.404-2.507,7.146-5.75l-0.286-0.081c-0.864,3.08-3.82,5.38-6.818,5.38c-2.465,0-4.148-1.52-4.148-3.697
			c0-2.299,1.396-4.763,3.778-6.694c2.423-1.971,5.586-3.162,8.296-3.162c4.025,0,6.448,2.217,6.448,5.954
			c0,3.615-2.628,8.337-6.57,11.747c-3.534,3.08-7.681,4.518-12.569,4.518c-5.421,0-10.882-2.261-12.773-5.504
			c3.985-3.287,5.463-5.053,9.201-11.09c3.081-4.968,4.477-6.94,6.408-8.788c0.902-0.903,1.889-1.725,2.915-2.422
			c1.026-0.698,1.808-1.232,3.489-1.849C429.405,58.91,435.362,61.004,441.03,61.004z"/>
	</g>
	<g>
		<path opacity="0.85" fill="#7E54A2" enable-background="new    " d="M148.579,334.923c0-12.741,4.4-23.579,13.201-32.578
			c8.735-8.998,19.44-13.465,31.986-13.465c12.61,0,23.252,4.532,31.987,13.597c8.736,8.998,13.071,19.836,13.071,32.446
			c0,12.547-4.335,23.318-13.071,32.318c-8.733,8.996-19.377,13.462-31.987,13.462c-12.546,0-23.249-4.464-31.986-13.462
			C152.979,358.241,148.579,347.47,148.579,334.923"/>
		<path opacity="0.82" fill="#60C08B" enable-background="new    " d="M80.54,334.924c0-12.744,4.401-23.58,13.2-32.579
			c8.735-8.998,19.443-13.465,31.988-13.465c12.611,0,23.25,4.532,31.986,13.597c8.737,8.997,13.073,19.836,13.073,32.447
			c0,12.545-4.336,23.316-13.073,32.314c-8.734,8.998-19.375,13.465-31.986,13.465c-12.545,0-23.252-4.466-31.988-13.465
			C84.941,358.24,80.54,347.468,80.54,334.924"/>
		<path fill="#FFFFFF" stroke="#FFFFFF" stroke-width="0.75" stroke-miterlimit="10" d="M164.785,337.364l-0.215,0.155
			c-0.587,0.411-1.994,1.645-1.994,2.798c0,0.391,0.234,0.762,0.626,0.762c0.879,0,1.798-1.31,1.798-2.522
			C165,338.107,164.924,337.715,164.785,337.364 M165.218,336.757l0.117-0.077c0.821-0.548,1.466-1.115,1.604-1.233
			c0.704-0.625,1.25-1.017,1.25-2.071c0-0.472-0.508-0.745-0.979-0.745c-1.172,0-2.229,1.096-3.323,2.25
			C164.416,335.467,164.924,336.014,165.218,336.757z M162.128,331.497c0.88-0.449,1.702-0.899,2.424-1.35
			c1.876-1.134,3.187-2.542,3.187-3.852c0-0.547-0.508-0.919-1.055-0.919c-2.7,0-4.615,2.817-4.615,5.182
			c0,0.332,0.021,0.645,0.06,0.919V331.497z M158.624,344.463c-1.172,0.763-2.384,1.546-4.106,1.546
			c-2.188,0-3.872-1.86-3.872-4.049c0-2.581,1.996-5.066,4.694-6.805c1.623-1.038,3.48-1.996,5.263-2.895
			c-0.041-0.195-0.06-0.411-0.06-0.627c0-2.033,2.601-6.512,6.062-6.512c0.765,0,1.624,0.586,1.624,1.114
			c0,1.703-1.801,3.031-4.126,4.479c-0.628,0.39-1.292,0.763-1.975,1.115c0.233,1.33,0.86,2.152,1.504,2.895
			c1.175-1.212,2.29-2.328,3.815-2.328c0.586,0,1.211,0.314,1.211,0.9c0,1.134-0.604,1.721-1.447,2.347
			c-0.587,0.449-1.289,0.919-1.955,1.389c0.117,0.352,0.177,0.743,0.177,1.193c0,1.585-0.998,3.168-2.584,3.168
			c-0.487,0-0.856-0.41-0.856-0.898c0-1.095,1.248-2.327,2.639-3.344c-0.312-0.627-0.822-1.135-1.371-1.622
			c-1.936,2.209-3.676,5.376-6.647,5.376c-0.724,0-1.565-0.273-1.565-0.996c0-0.432,0.195-0.9,0.625-0.9
			c0.373,0,0.727,0.253,0.727,0.626c0,0.313-0.236,0.605-0.451,0.665c0.061,0.194,0.488,0.39,0.861,0.39
			c2.698,0,4.244-3.187,6.238-5.34c-0.956-0.821-1.994-1.603-2.346-2.795c-2.074,1.038-4.226,2.093-5.947,3.5
			c-2.053,1.682-3.52,3.541-3.52,6.219c0,1.838,1.408,3.443,3.248,3.443c1.643,0,3.225-0.802,3.989-1.371L158.624,344.463z"/>
		<path fill="#FFFFFF" stroke="#FFFFFF" stroke-width="0.75" stroke-miterlimit="10" d="M181.33,346.757
			c3.328-3.45,6.819-7.353,8.338-9.283l1.521-2.054h5.83c-3.45,3.778-4.928,5.422-7.104,7.516
			c-5.545,5.257-10.391,8.666-11.707,8.666c-0.367,0-0.531-0.125-0.531-0.452c0-0.698,1.396-2.013,3.695-4.395h-0.041V346.757z
			 M209.26,334.762l-10.721-0.042c0.492-0.452,0.656-0.616,1.354-1.312c10.062-10.186,15.318-13.841,22.877-13.841
			c4.725,0,7.148,2.053,7.148,5.996c0,5.297-5.053,9.856-10.761,9.856c-3.409,0-5.257-1.356-5.257-3.944
			c0-3.532,4.188-6.859,9.076-7.146v-0.37c-5.424,0.37-9.897,3.737-9.897,7.475c0,2.753,2.175,4.396,5.873,4.396
			c6.57,0,12.483-4.682,12.483-9.856c0-4.271-3.201-6.817-8.666-6.817c-3.738,0-8.91,0.287-18.687,9.24
			c-5.462,4.971-6.448,6.325-6.448,6.325h-5.995c1.724-2.586,4.928-7.023,4.928-11.047c0-2.917-1.602-4.517-4.477-4.517
			c-4.106,0-9.403,4.558-9.403,8.255c0,1.56,1.025,2.793,2.504,2.793c2.094,0,4.271-1.604,5.748-4.312l-0.205-0.083
			c-1.643,2.587-3.614,4.025-5.463,4.025c-1.23,0-1.928-0.862-1.928-2.216c0-3.081,4.846-8.132,8.666-8.132
			c1.97,0,2.956,0.862,2.956,2.504c0,2.262-0.862,4.643-3.12,8.545c-0.986,1.765-1.438,2.465-2.629,4.188l-4.723,0.125
			c-0.902,0.041-1.439,0.081-2.713,0.165l-0.164,0.205c2.178,0,3.082,0,4.887,0.082c0.986,0,1.562,0.081,2.342,0.081l-3.614,4.683
			c-3.86,5.173-8.213,8.993-8.213,11.006c0,0.493,0.452,0.905,1.026,0.905l0.122-0.043c1.849-0.122,7.064-4.147,8.913-5.749
			c2.342-1.971,6.285-5.75,10.967-10.883h8.667c0.657,0,1.108,0,2.302-0.082L209.26,334.762z"/>
		<path fill="#FFFFFF" stroke="#FFFFFF" stroke-width="0.75" stroke-miterlimit="10" d="M139.432,322.895
			c-2.958,0-6.242-0.658-9.939-1.973c2.176-0.575,4.394-0.821,7.188-0.821c3.902,0,6.324,0.616,6.324,1.562
			C143.004,322.442,141.65,322.895,139.432,322.895 M110.928,338.542c-1.561,2.67-3.203,4.807-5.011,6.243
			c-1.313-1.808-1.849-3.901-1.849-6.654c0-9.282,8.379-17.7,17.7-17.7c2.013,0,3.903,0.205,5.586,0.656
			c-1.931,0.782-4.106,2.054-5.832,3.409c-2.054,1.602-4.353,4.066-6.078,6.407C114.09,332.751,112.695,335.543,110.928,338.542z
			 M140.008,323.387c2.505,0,4.065-0.615,4.065-1.603c0-1.272-3.038-2.134-7.518-2.134c-4.022,0-7.392,0.821-8.089,0.942
			c0,0-4.273-0.697-6.037-0.697c-5.34,0-9.366,1.562-13.309,5.257c-3.943,3.696-5.791,7.64-5.791,12.403
			c0,4.025,1.438,6.696,2.057,7.64c-4.109,3.285-7.229,4.642-10.559,4.642c-1.808,0-2.875-0.371-4.436-1.52l-0.166,0.206
			c1.07,1.231,2.674,1.807,4.848,1.807c3.287,0,7.805-1.849,10.844-4.435c1.972,2.422,3.739,3.327,6.324,4.394
			c2.013,0.821,4.602,1.192,7.148,1.192c10.677,0,20.906-7.681,20.906-15.647c0-4.725-3.164-7.599-8.297-7.599
			c-3.08,0-6.49,1.232-9.117,3.285c-2.465,1.889-3.9,4.354-3.9,6.776c0,2.671,1.969,4.436,4.887,4.436
			c3.285,0,6.404-2.507,7.146-5.75l-0.286-0.081c-0.864,3.08-3.82,5.38-6.818,5.38c-2.465,0-4.148-1.52-4.148-3.697
			c0-2.299,1.396-4.763,3.778-6.694c2.423-1.971,5.586-3.162,8.296-3.162c4.025,0,6.448,2.217,6.448,5.954
			c0,3.615-2.628,8.337-6.57,11.747c-3.534,3.08-7.681,4.518-12.569,4.518c-5.421,0-10.882-2.261-12.773-5.504
			c3.985-3.287,5.463-5.053,9.201-11.09c3.081-4.968,4.477-6.94,6.408-8.788c0.902-0.903,1.889-1.725,2.915-2.422
			c1.026-0.698,1.808-1.232,3.489-1.849C128.383,321.292,134.34,323.387,140.008,323.387z"/>
	</g>
	<g>
		<path opacity="0.85" fill="#7E54A2" enable-background="new    " d="M449.502,334.923c0-12.741,4.4-23.579,13.201-32.578
			c8.735-8.998,19.44-13.465,31.986-13.465c12.61,0,23.252,4.532,31.987,13.597c8.736,8.998,13.071,19.836,13.071,32.446
			c0,12.547-4.335,23.318-13.071,32.318c-8.733,8.996-19.377,13.462-31.987,13.462c-12.546,0-23.249-4.464-31.986-13.462
			C453.901,358.241,449.502,347.47,449.502,334.923"/>
		<path opacity="0.82" fill="#60C08B" enable-background="new    " d="M381.463,334.924c0-12.744,4.401-23.58,13.2-32.579
			c8.735-8.998,19.443-13.465,31.988-13.465c12.611,0,23.25,4.532,31.986,13.597c8.737,8.997,13.073,19.836,13.073,32.447
			c0,12.545-4.336,23.316-13.073,32.314c-8.734,8.998-19.375,13.465-31.986,13.465c-12.545,0-23.252-4.466-31.988-13.465
			C385.864,358.24,381.463,347.468,381.463,334.924"/>
		<path fill="#FFFFFF" stroke="#FFFFFF" stroke-width="0.75" stroke-miterlimit="10" d="M465.708,337.364l-0.215,0.155
			c-0.587,0.411-1.994,1.645-1.994,2.798c0,0.391,0.234,0.762,0.626,0.762c0.879,0,1.798-1.31,1.798-2.522
			C465.923,338.107,465.847,337.715,465.708,337.364 M466.141,336.757l0.117-0.077c0.821-0.548,1.466-1.115,1.604-1.233
			c0.704-0.625,1.25-1.017,1.25-2.071c0-0.472-0.508-0.745-0.979-0.745c-1.172,0-2.229,1.096-3.323,2.25
			C465.339,335.467,465.847,336.014,466.141,336.757z M463.051,331.497c0.88-0.449,1.702-0.899,2.424-1.35
			c1.876-1.134,3.187-2.542,3.187-3.852c0-0.547-0.508-0.919-1.055-0.919c-2.7,0-4.615,2.817-4.615,5.182
			c0,0.332,0.021,0.645,0.06,0.919V331.497z M459.547,344.463c-1.172,0.763-2.384,1.546-4.106,1.546
			c-2.188,0-3.872-1.86-3.872-4.049c0-2.581,1.996-5.066,4.694-6.805c1.623-1.038,3.48-1.996,5.263-2.895
			c-0.041-0.195-0.06-0.411-0.06-0.627c0-2.033,2.601-6.512,6.062-6.512c0.765,0,1.624,0.586,1.624,1.114
			c0,1.703-1.801,3.031-4.126,4.479c-0.628,0.39-1.292,0.763-1.975,1.115c0.233,1.33,0.86,2.152,1.504,2.895
			c1.175-1.212,2.29-2.328,3.815-2.328c0.586,0,1.211,0.314,1.211,0.9c0,1.134-0.604,1.721-1.447,2.347
			c-0.587,0.449-1.289,0.919-1.955,1.389c0.117,0.352,0.177,0.743,0.177,1.193c0,1.585-0.998,3.168-2.584,3.168
			c-0.487,0-0.856-0.41-0.856-0.898c0-1.095,1.248-2.327,2.639-3.344c-0.312-0.627-0.822-1.135-1.371-1.622
			c-1.936,2.209-3.676,5.376-6.647,5.376c-0.724,0-1.565-0.273-1.565-0.996c0-0.432,0.195-0.9,0.625-0.9
			c0.373,0,0.727,0.253,0.727,0.626c0,0.313-0.236,0.605-0.451,0.665c0.061,0.194,0.488,0.39,0.861,0.39
			c2.698,0,4.244-3.187,6.238-5.34c-0.956-0.821-1.994-1.603-2.346-2.795c-2.074,1.038-4.226,2.093-5.947,3.5
			c-2.053,1.682-3.52,3.541-3.52,6.219c0,1.838,1.408,3.443,3.248,3.443c1.643,0,3.225-0.802,3.989-1.371L459.547,344.463z"/>
		<path fill="#FFFFFF" stroke="#FFFFFF" stroke-width="0.75" stroke-miterlimit="10" d="M482.253,346.757
			c3.328-3.45,6.819-7.353,8.338-9.283l1.521-2.054h5.83c-3.45,3.778-4.928,5.422-7.104,7.516
			c-5.545,5.257-10.391,8.666-11.707,8.666c-0.367,0-0.531-0.125-0.531-0.452c0-0.698,1.396-2.013,3.695-4.395h-0.041V346.757z
			 M510.183,334.762l-10.721-0.042c0.492-0.452,0.656-0.616,1.354-1.312c10.062-10.186,15.318-13.841,22.877-13.841
			c4.725,0,7.148,2.053,7.148,5.996c0,5.297-5.053,9.856-10.761,9.856c-3.409,0-5.257-1.356-5.257-3.944
			c0-3.532,4.188-6.859,9.076-7.146v-0.37c-5.424,0.37-9.897,3.737-9.897,7.475c0,2.753,2.175,4.396,5.873,4.396
			c6.57,0,12.483-4.682,12.483-9.856c0-4.271-3.201-6.817-8.666-6.817c-3.738,0-8.91,0.287-18.687,9.24
			c-5.462,4.971-6.448,6.325-6.448,6.325h-5.995c1.724-2.586,4.928-7.023,4.928-11.047c0-2.917-1.602-4.517-4.477-4.517
			c-4.106,0-9.403,4.558-9.403,8.255c0,1.56,1.025,2.793,2.504,2.793c2.094,0,4.271-1.604,5.748-4.312l-0.205-0.083
			c-1.643,2.587-3.614,4.025-5.463,4.025c-1.23,0-1.928-0.862-1.928-2.216c0-3.081,4.846-8.132,8.666-8.132
			c1.97,0,2.956,0.862,2.956,2.504c0,2.262-0.862,4.643-3.12,8.545c-0.986,1.765-1.438,2.465-2.629,4.188l-4.723,0.125
			c-0.902,0.041-1.439,0.081-2.713,0.165l-0.164,0.205c2.178,0,3.082,0,4.887,0.082c0.986,0,1.562,0.081,2.342,0.081l-3.614,4.683
			c-3.86,5.173-8.213,8.993-8.213,11.006c0,0.493,0.452,0.905,1.026,0.905l0.122-0.043c1.849-0.122,7.064-4.147,8.913-5.749
			c2.342-1.971,6.285-5.75,10.967-10.883h8.667c0.657,0,1.108,0,2.302-0.082L510.183,334.762z"/>
		<path fill="#FFFFFF" stroke="#FFFFFF" stroke-width="0.75" stroke-miterlimit="10" d="M440.354,322.895
			c-2.958,0-6.242-0.658-9.939-1.973c2.176-0.575,4.394-0.821,7.188-0.821c3.902,0,6.324,0.616,6.324,1.562
			C443.927,322.442,442.573,322.895,440.354,322.895 M411.851,338.542c-1.561,2.67-3.203,4.807-5.011,6.243
			c-1.313-1.808-1.849-3.901-1.849-6.654c0-9.282,8.379-17.7,17.7-17.7c2.013,0,3.903,0.205,5.586,0.656
			c-1.931,0.782-4.106,2.054-5.832,3.409c-2.054,1.602-4.353,4.066-6.078,6.407C415.013,332.751,413.618,335.543,411.851,338.542z
			 M440.931,323.387c2.505,0,4.065-0.615,4.065-1.603c0-1.272-3.038-2.134-7.518-2.134c-4.022,0-7.392,0.821-8.089,0.942
			c0,0-4.273-0.697-6.037-0.697c-5.34,0-9.366,1.562-13.309,5.257c-3.943,3.696-5.791,7.64-5.791,12.403
			c0,4.025,1.438,6.696,2.057,7.64c-4.109,3.285-7.229,4.642-10.559,4.642c-1.808,0-2.875-0.371-4.436-1.52l-0.166,0.206
			c1.07,1.231,2.674,1.807,4.848,1.807c3.287,0,7.805-1.849,10.844-4.435c1.972,2.422,3.739,3.327,6.324,4.394
			c2.013,0.821,4.602,1.192,7.148,1.192c10.677,0,20.906-7.681,20.906-15.647c0-4.725-3.164-7.599-8.297-7.599
			c-3.08,0-6.49,1.232-9.117,3.285c-2.465,1.889-3.9,4.354-3.9,6.776c0,2.671,1.969,4.436,4.887,4.436
			c3.285,0,6.404-2.507,7.146-5.75l-0.286-0.081c-0.864,3.08-3.82,5.38-6.818,5.38c-2.465,0-4.148-1.52-4.148-3.697
			c0-2.299,1.396-4.763,3.778-6.694c2.423-1.971,5.586-3.162,8.296-3.162c4.025,0,6.448,2.217,6.448,5.954
			c0,3.615-2.628,8.337-6.57,11.747c-3.534,3.08-7.681,4.518-12.569,4.518c-5.421,0-10.882-2.261-12.773-5.504
			c3.985-3.287,5.463-5.053,9.201-11.09c3.081-4.968,4.477-6.94,6.408-8.788c0.902-0.903,1.889-1.725,2.915-2.422
			c1.026-0.698,1.808-1.232,3.489-1.849C429.306,321.292,435.263,323.387,440.931,323.387z"/>
	</g>
	<g>
		<path opacity="0.85" fill="#7E54A2" enable-background="new    " d="M148.228,592.923c0-12.741,4.4-23.579,13.201-32.578
			c8.735-8.998,19.44-13.465,31.986-13.465c12.61,0,23.252,4.532,31.987,13.597c8.736,8.998,13.071,19.836,13.071,32.446
			c0,12.547-4.335,23.318-13.071,32.318c-8.733,8.996-19.377,13.462-31.987,13.462c-12.546,0-23.249-4.464-31.986-13.462
			C152.627,616.241,148.228,605.47,148.228,592.923"/>
		<path opacity="0.82" fill="#60C08B" enable-background="new    " d="M80.188,592.924c0-12.744,4.401-23.58,13.2-32.579
			c8.735-8.998,19.443-13.465,31.988-13.465c12.611,0,23.25,4.532,31.986,13.597c8.737,8.997,13.073,19.836,13.073,32.447
			c0,12.545-4.336,23.316-13.073,32.314c-8.734,8.998-19.375,13.465-31.986,13.465c-12.545,0-23.252-4.466-31.988-13.465
			C84.59,616.24,80.188,605.468,80.188,592.924"/>
		<path fill="#FFFFFF" stroke="#FFFFFF" stroke-width="0.75" stroke-miterlimit="10" d="M164.434,595.364l-0.215,0.155
			c-0.587,0.41-1.994,1.645-1.994,2.798c0,0.391,0.234,0.762,0.626,0.762c0.879,0,1.798-1.31,1.798-2.522
			C164.648,596.107,164.572,595.715,164.434,595.364 M164.866,594.758l0.117-0.078c0.821-0.548,1.466-1.115,1.604-1.232
			c0.704-0.626,1.25-1.018,1.25-2.071c0-0.472-0.508-0.745-0.979-0.745c-1.172,0-2.229,1.096-3.323,2.25
			C164.064,593.467,164.572,594.014,164.866,594.758z M161.776,589.497c0.88-0.448,1.702-0.899,2.424-1.351
			c1.876-1.133,3.187-2.542,3.187-3.852c0-0.547-0.508-0.92-1.055-0.92c-2.7,0-4.615,2.818-4.615,5.183
			c0,0.332,0.021,0.645,0.06,0.919V589.497z M158.272,602.463c-1.172,0.764-2.384,1.547-4.106,1.547
			c-2.188,0-3.872-1.861-3.872-4.05c0-2.581,1.996-5.065,4.694-6.806c1.623-1.037,3.48-1.996,5.263-2.895
			c-0.041-0.195-0.06-0.41-0.06-0.627c0-2.033,2.601-6.512,6.062-6.512c0.765,0,1.624,0.586,1.624,1.113
			c0,1.703-1.801,3.031-4.126,4.479c-0.628,0.39-1.292,0.763-1.975,1.114c0.233,1.33,0.86,2.152,1.504,2.896
			c1.175-1.212,2.29-2.327,3.815-2.327c0.586,0,1.211,0.313,1.211,0.899c0,1.134-0.604,1.722-1.447,2.347
			c-0.587,0.449-1.289,0.92-1.955,1.389c0.117,0.352,0.177,0.743,0.177,1.193c0,1.586-0.998,3.168-2.584,3.168
			c-0.487,0-0.856-0.41-0.856-0.898c0-1.095,1.248-2.326,2.639-3.344c-0.312-0.627-0.822-1.135-1.371-1.622
			c-1.936,2.21-3.676,5.376-6.647,5.376c-0.724,0-1.565-0.273-1.565-0.995c0-0.433,0.195-0.899,0.625-0.899
			c0.373,0,0.727,0.252,0.727,0.626c0,0.313-0.236,0.604-0.451,0.665c0.061,0.194,0.488,0.391,0.861,0.391
			c2.698,0,4.244-3.188,6.238-5.34c-0.956-0.822-1.994-1.604-2.346-2.796c-2.074,1.038-4.226,2.093-5.947,3.5
			c-2.053,1.683-3.52,3.541-3.52,6.22c0,1.838,1.408,3.442,3.248,3.442c1.643,0,3.225-0.802,3.989-1.37L158.272,602.463z"/>
		<path fill="#FFFFFF" stroke="#FFFFFF" stroke-width="0.75" stroke-miterlimit="10" d="M180.979,604.757
			c3.328-3.45,6.819-7.353,8.338-9.283l1.521-2.054h5.83c-3.45,3.778-4.928,5.422-7.104,7.516
			c-5.545,5.258-10.391,8.666-11.707,8.666c-0.367,0-0.531-0.125-0.531-0.451c0-0.699,1.396-2.014,3.695-4.395L180.979,604.757
			L180.979,604.757z M208.908,592.762l-10.721-0.041c0.492-0.451,0.656-0.616,1.354-1.312
			c10.062-10.186,15.318-13.841,22.877-13.841c4.725,0,7.148,2.054,7.148,5.996c0,5.298-5.053,9.856-10.761,9.856
			c-3.409,0-5.257-1.355-5.257-3.943c0-3.533,4.188-6.859,9.076-7.146v-0.371c-5.424,0.371-9.897,3.738-9.897,7.475
			c0,2.754,2.175,4.396,5.873,4.396c6.57,0,12.483-4.683,12.483-9.857c0-4.271-3.201-6.816-8.666-6.816
			c-3.738,0-8.91,0.286-18.687,9.24c-5.462,4.971-6.448,6.324-6.448,6.324h-5.995c1.724-2.586,4.928-7.023,4.928-11.047
			c0-2.918-1.602-4.518-4.477-4.518c-4.106,0-9.403,4.559-9.403,8.256c0,1.56,1.025,2.793,2.504,2.793
			c2.094,0,4.271-1.604,5.748-4.312l-0.205-0.083c-1.643,2.587-3.614,4.024-5.463,4.024c-1.23,0-1.928-0.861-1.928-2.216
			c0-3.081,4.846-8.132,8.666-8.132c1.97,0,2.956,0.861,2.956,2.504c0,2.262-0.862,4.643-3.12,8.545
			c-0.986,1.766-1.438,2.465-2.629,4.188l-4.723,0.125c-0.902,0.041-1.439,0.082-2.713,0.166l-0.164,0.205
			c2.178,0,3.082,0,4.887,0.081c0.986,0,1.562,0.081,2.342,0.081l-3.614,4.684c-3.86,5.173-8.213,8.992-8.213,11.006
			c0,0.492,0.452,0.904,1.026,0.904l0.122-0.043c1.849-0.121,7.064-4.146,8.913-5.749c2.342-1.971,6.285-5.75,10.967-10.883h8.667
			c0.657,0,1.108,0,2.302-0.081L208.908,592.762z"/>
		<path fill="#FFFFFF" stroke="#FFFFFF" stroke-width="0.75" stroke-miterlimit="10" d="M139.08,580.895
			c-2.958,0-6.242-0.658-9.939-1.973c2.176-0.575,4.394-0.821,7.188-0.821c3.902,0,6.324,0.616,6.324,1.562
			C142.652,580.441,141.299,580.895,139.08,580.895 M110.576,596.541c-1.561,2.671-3.203,4.808-5.011,6.244
			c-1.313-1.809-1.849-3.901-1.849-6.654c0-9.282,8.379-17.7,17.7-17.7c2.013,0,3.903,0.205,5.586,0.656
			c-1.931,0.782-4.106,2.054-5.832,3.409c-2.054,1.602-4.353,4.066-6.078,6.406C113.738,590.751,112.344,593.543,110.576,596.541z
			 M139.656,581.387c2.505,0,4.065-0.615,4.065-1.603c0-1.272-3.038-2.134-7.518-2.134c-4.022,0-7.392,0.82-8.089,0.941
			c0,0-4.273-0.696-6.037-0.696c-5.34,0-9.366,1.562-13.309,5.257c-3.943,3.696-5.791,7.641-5.791,12.403
			c0,4.024,1.438,6.696,2.057,7.64c-4.109,3.285-7.229,4.642-10.559,4.642c-1.808,0-2.875-0.37-4.436-1.521l-0.166,0.206
			c1.07,1.231,2.674,1.808,4.848,1.808c3.287,0,7.805-1.85,10.844-4.436c1.972,2.422,3.739,3.327,6.324,4.395
			c2.013,0.82,4.602,1.191,7.148,1.191c10.677,0,20.906-7.681,20.906-15.647c0-4.725-3.164-7.599-8.297-7.599
			c-3.08,0-6.49,1.231-9.117,3.285c-2.465,1.889-3.9,4.354-3.9,6.775c0,2.672,1.969,4.437,4.887,4.437
			c3.285,0,6.404-2.507,7.146-5.751l-0.286-0.08c-0.864,3.08-3.82,5.38-6.818,5.38c-2.465,0-4.148-1.52-4.148-3.697
			c0-2.299,1.396-4.763,3.778-6.694c2.423-1.971,5.586-3.162,8.296-3.162c4.025,0,6.448,2.217,6.448,5.954
			c0,3.614-2.628,8.337-6.57,11.747c-3.534,3.08-7.681,4.518-12.569,4.518c-5.421,0-10.882-2.261-12.773-5.504
			c3.985-3.287,5.463-5.053,9.201-11.09c3.081-4.969,4.477-6.94,6.408-8.788c0.902-0.903,1.889-1.726,2.915-2.423
			s1.808-1.231,3.489-1.848C128.031,579.293,133.988,581.387,139.656,581.387z"/>
	</g>
	<g>
		<path opacity="0.85" fill="#7E54A2" enable-background="new    " d="M449.15,592.923c0-12.741,4.4-23.579,13.201-32.578
			c8.735-8.998,19.44-13.465,31.986-13.465c12.61,0,23.252,4.532,31.987,13.597c8.736,8.998,13.071,19.836,13.071,32.446
			c0,12.547-4.335,23.318-13.071,32.318c-8.733,8.996-19.377,13.462-31.987,13.462c-12.546,0-23.249-4.464-31.986-13.462
			C453.55,616.241,449.15,605.47,449.15,592.923"/>
		<path opacity="0.82" fill="#60C08B" enable-background="new    " d="M381.111,592.924c0-12.744,4.401-23.58,13.2-32.579
			c8.735-8.998,19.443-13.465,31.988-13.465c12.611,0,23.25,4.532,31.986,13.597c8.737,8.997,13.073,19.836,13.073,32.447
			c0,12.545-4.336,23.316-13.073,32.314c-8.734,8.998-19.375,13.465-31.986,13.465c-12.545,0-23.252-4.466-31.988-13.465
			C385.513,616.24,381.111,605.468,381.111,592.924"/>
		<path fill="#FFFFFF" stroke="#FFFFFF" stroke-width="0.75" stroke-miterlimit="10" d="M465.356,595.364l-0.215,0.155
			c-0.587,0.41-1.994,1.645-1.994,2.798c0,0.391,0.234,0.762,0.626,0.762c0.879,0,1.798-1.31,1.798-2.522
			C465.571,596.107,465.495,595.715,465.356,595.364 M465.789,594.758l0.117-0.078c0.821-0.548,1.466-1.115,1.604-1.232
			c0.704-0.626,1.25-1.018,1.25-2.071c0-0.472-0.508-0.745-0.979-0.745c-1.172,0-2.229,1.096-3.323,2.25
			C464.987,593.467,465.495,594.014,465.789,594.758z M462.699,589.497c0.88-0.448,1.702-0.899,2.424-1.351
			c1.876-1.133,3.187-2.542,3.187-3.852c0-0.547-0.508-0.92-1.055-0.92c-2.7,0-4.615,2.818-4.615,5.183
			c0,0.332,0.021,0.645,0.06,0.919V589.497z M459.195,602.463c-1.172,0.764-2.384,1.547-4.106,1.547
			c-2.188,0-3.872-1.861-3.872-4.05c0-2.581,1.996-5.065,4.694-6.806c1.623-1.037,3.48-1.996,5.263-2.895
			c-0.041-0.195-0.06-0.41-0.06-0.627c0-2.033,2.601-6.512,6.062-6.512c0.765,0,1.624,0.586,1.624,1.113
			c0,1.703-1.801,3.031-4.126,4.479c-0.628,0.39-1.292,0.763-1.975,1.114c0.233,1.33,0.86,2.152,1.504,2.896
			c1.175-1.212,2.29-2.327,3.815-2.327c0.586,0,1.211,0.313,1.211,0.899c0,1.134-0.604,1.722-1.447,2.347
			c-0.587,0.449-1.289,0.92-1.955,1.389c0.117,0.352,0.177,0.743,0.177,1.193c0,1.586-0.998,3.168-2.584,3.168
			c-0.487,0-0.856-0.41-0.856-0.898c0-1.095,1.248-2.326,2.639-3.344c-0.312-0.627-0.822-1.135-1.371-1.622
			c-1.936,2.21-3.676,5.376-6.647,5.376c-0.724,0-1.565-0.273-1.565-0.995c0-0.433,0.195-0.899,0.625-0.899
			c0.373,0,0.727,0.252,0.727,0.626c0,0.313-0.236,0.604-0.451,0.665c0.061,0.194,0.488,0.391,0.861,0.391
			c2.698,0,4.244-3.188,6.238-5.34c-0.956-0.822-1.994-1.604-2.346-2.796c-2.074,1.038-4.226,2.093-5.947,3.5
			c-2.053,1.683-3.52,3.541-3.52,6.22c0,1.838,1.408,3.442,3.248,3.442c1.643,0,3.225-0.802,3.989-1.37L459.195,602.463z"/>
		<path fill="#FFFFFF" stroke="#FFFFFF" stroke-width="0.75" stroke-miterlimit="10" d="M481.901,604.757
			c3.328-3.45,6.819-7.353,8.338-9.283l1.521-2.054h5.83c-3.45,3.778-4.928,5.422-7.104,7.516
			c-5.545,5.258-10.391,8.666-11.707,8.666c-0.367,0-0.531-0.125-0.531-0.451c0-0.699,1.396-2.014,3.695-4.395L481.901,604.757
			L481.901,604.757z M509.831,592.762l-10.721-0.041c0.492-0.451,0.656-0.616,1.354-1.312
			c10.062-10.186,15.318-13.841,22.877-13.841c4.725,0,7.148,2.054,7.148,5.996c0,5.298-5.053,9.856-10.761,9.856
			c-3.409,0-5.257-1.355-5.257-3.943c0-3.533,4.188-6.859,9.076-7.146v-0.371c-5.424,0.371-9.897,3.738-9.897,7.475
			c0,2.754,2.175,4.396,5.873,4.396c6.57,0,12.483-4.683,12.483-9.857c0-4.271-3.201-6.816-8.666-6.816
			c-3.738,0-8.91,0.286-18.687,9.24c-5.462,4.971-6.448,6.324-6.448,6.324h-5.995c1.724-2.586,4.928-7.023,4.928-11.047
			c0-2.918-1.602-4.518-4.477-4.518c-4.106,0-9.403,4.559-9.403,8.256c0,1.56,1.025,2.793,2.504,2.793
			c2.094,0,4.271-1.604,5.748-4.312l-0.205-0.083c-1.643,2.587-3.614,4.024-5.463,4.024c-1.23,0-1.928-0.861-1.928-2.216
			c0-3.081,4.846-8.132,8.666-8.132c1.97,0,2.956,0.861,2.956,2.504c0,2.262-0.862,4.643-3.12,8.545
			c-0.986,1.766-1.438,2.465-2.629,4.188l-4.723,0.125c-0.902,0.041-1.439,0.082-2.713,0.166l-0.164,0.205
			c2.178,0,3.082,0,4.887,0.081c0.986,0,1.562,0.081,2.342,0.081l-3.614,4.684c-3.86,5.173-8.213,8.992-8.213,11.006
			c0,0.492,0.452,0.904,1.026,0.904l0.122-0.043c1.849-0.121,7.064-4.146,8.913-5.749c2.342-1.971,6.285-5.75,10.967-10.883h8.667
			c0.657,0,1.108,0,2.302-0.081L509.831,592.762z"/>
		<path fill="#FFFFFF" stroke="#FFFFFF" stroke-width="0.75" stroke-miterlimit="10" d="M440.003,580.895
			c-2.958,0-6.242-0.658-9.939-1.973c2.176-0.575,4.394-0.821,7.188-0.821c3.902,0,6.324,0.616,6.324,1.562
			C443.575,580.441,442.222,580.895,440.003,580.895 M411.499,596.541c-1.561,2.671-3.203,4.808-5.011,6.244
			c-1.313-1.809-1.849-3.901-1.849-6.654c0-9.282,8.379-17.7,17.7-17.7c2.013,0,3.903,0.205,5.586,0.656
			c-1.931,0.782-4.106,2.054-5.832,3.409c-2.054,1.602-4.353,4.066-6.078,6.406C414.661,590.751,413.267,593.543,411.499,596.541z
			 M440.579,581.387c2.505,0,4.065-0.615,4.065-1.603c0-1.272-3.038-2.134-7.518-2.134c-4.022,0-7.392,0.82-8.089,0.941
			c0,0-4.273-0.696-6.037-0.696c-5.34,0-9.366,1.562-13.309,5.257c-3.943,3.696-5.791,7.641-5.791,12.403
			c0,4.024,1.438,6.696,2.057,7.64c-4.109,3.285-7.229,4.642-10.559,4.642c-1.808,0-2.875-0.37-4.436-1.521l-0.166,0.206
			c1.07,1.231,2.674,1.808,4.848,1.808c3.287,0,7.805-1.85,10.844-4.436c1.972,2.422,3.739,3.327,6.324,4.395
			c2.013,0.82,4.602,1.191,7.148,1.191c10.677,0,20.906-7.681,20.906-15.647c0-4.725-3.164-7.599-8.297-7.599
			c-3.08,0-6.49,1.231-9.117,3.285c-2.465,1.889-3.9,4.354-3.9,6.775c0,2.672,1.969,4.437,4.887,4.437
			c3.285,0,6.404-2.507,7.146-5.751l-0.286-0.08c-0.864,3.08-3.82,5.38-6.818,5.38c-2.465,0-4.148-1.52-4.148-3.697
			c0-2.299,1.396-4.763,3.778-6.694c2.423-1.971,5.586-3.162,8.296-3.162c4.025,0,6.448,2.217,6.448,5.954
			c0,3.614-2.628,8.337-6.57,11.747c-3.534,3.08-7.681,4.518-12.569,4.518c-5.421,0-10.882-2.261-12.773-5.504
			c3.985-3.287,5.463-5.053,9.201-11.09c3.081-4.969,4.477-6.94,6.408-8.788c0.902-0.903,1.889-1.726,2.915-2.423
			s1.808-1.231,3.489-1.848C428.954,579.293,434.911,581.387,440.579,581.387z"/>
	</g>
</g>
<g id="Words">
	<text text-anchor="middle" transform="matrix(1 0 0 1 159.73 190.9746)" fill="#010101" font-family="'Byington'" font-size="19.558">#NAME1#</text>
	<text text-anchor="middle" transform="matrix(1 0 0 1 159.73 229.083)" fill="#010101" font-family="'Byington'" font-size="22.0027">- #NUM1# -</text>
	<text text-anchor="middle" transform="matrix(1 0 0 1 460.692 190.459)" fill="#010101" font-family="'Byington'" font-size="19.558">#NAME2#</text>
	<text text-anchor="middle" transform="matrix(1 0 0 1 460.692 228.5674)" fill="#010101" font-family="'Byington'" font-size="22.0027">- #NUM2# -</text>
	<text text-anchor="middle" transform="matrix(1 0 0 1 159.73 453.4746)" fill="#010101" font-family="'Byington'" font-size="19.558">#NAME3#</text>
	<text text-anchor="middle" transform="matrix(1 0 0 1 159.73 491.583)" fill="#010101" font-family="'Byington'" font-size="22.0027">- #NUM3# -</text>
	<text text-anchor="middle" transform="matrix(1 0 0 1 460.692 452.959)" fill="#010101" font-family="'Byington'" font-size="19.558">#NAME4#</text>
	<text text-anchor="middle" transform="matrix(1 0 0 1 460.692 491.0674)" fill="#010101" font-family="'Byington'" font-size="22.0027">- #NUM4# -</text>
	<text text-anchor="middle" transform="matrix(1 0 0 1 159.73 709.4746)" fill="#010101" font-family="'Byington'" font-size="19.558">#NAME5#</text>
	<text text-anchor="middle" transform="matrix(1 0 0 1 159.73 747.583)" fill="#010101" font-family="'Byington'" font-size="22.0027">- #NUM5# -</text>
	<text text-anchor="middle" transform="matrix(1 0 0 1 460.692 708.959)" fill="#010101" font-family="'Byington'" font-size="19.558">#NAME6#</text>
	<text text-anchor="middle" transform="matrix(1 0 0 1 460.692 747.0674)" fill="#010101" font-family="'Byington'" font-size="22.0027">- #NUM6# -</text>
</g>
</svg>
