<?xml version="1.0" encoding="utf-8"?>
<!-- Generator: Adobe Illustrator 16.0.0, SVG Export Plug-In . SVG Version: 6.00 Build 0)  -->
<!DOCTYPE svg PUBLIC "-//W3C//DTD SVG 1.1//EN" "http://www.w3.org/Graphics/SVG/1.1/DTD/svg11.dtd">
<svg version="1.1" xmlns="http://www.w3.org/2000/svg" xmlns:xlink="http://www.w3.org/1999/xlink" x="0px" y="0px"
	 width="255.12px" height="226.77px" viewBox="0 0 255.12 226.77" enable-background="new 0 0 255.12 226.77" xml:space="preserve">
<g id="Layer_2">
	<g opacity="0.7">
		<polyline opacity="0.85" fill="#7D53A2" stroke="#7D53A2" stroke-width="5" stroke-miterlimit="10" points="88.704,150.996 
			92.707,171.848 78.5,155.85 		"/>
		<polyline opacity="0.85" fill="#7D53A2" stroke="#7D53A2" stroke-width="5" stroke-miterlimit="10" points="66.458,160.864 
			68.256,182.014 55.811,164.623 		"/>
		<polyline opacity="0.85" fill="#7D53A2" stroke="#7D53A2" stroke-width="5" stroke-miterlimit="10" points="43.572,168.244 
			43.154,189.471 32.596,170.871 		"/>
		<polyline opacity="0.85" fill="#7D53A2" stroke="#7D53A2" stroke-width="5" stroke-miterlimit="10" points="8.26,175.285 
			17.158,194.732 19.422,173.633 		"/>
		<polyline opacity="0.85" fill="#7D53A2" stroke="#7D53A2" stroke-width="5" stroke-miterlimit="10" points="-15.06,176.181 
			-8.246,196.452 -3.79,175.695 		"/>
		<polyline opacity="0.85" fill="#7D53A2" stroke="#7D53A2" stroke-width="5" stroke-miterlimit="10" points="-38.056,176.374 
			-33.034,197.16 -26.777,176.863 		"/>
		<polyline opacity="0.85" fill="#7D53A2" stroke="#7D53A2" stroke-width="5" stroke-miterlimit="10" points="-84.013,170.906 
			-82.302,192.232 -72.949,173.172 		"/>
		<path fill="none" stroke="#7D53A2" stroke-width="5" stroke-miterlimit="10" d="M-92.611,168.055
			c24.935,6.602,143.221,34.256,233.326-56.67"/>
		<polyline opacity="0.85" fill="#7D53A2" stroke="#7D53A2" stroke-width="5" stroke-miterlimit="10" points="-61.515,174.428 
			-57.956,195.52 -50.3,175.716 		"/>
		<polyline opacity="0.85" fill="#7D53A2" stroke="#7D53A2" stroke-width="5" stroke-miterlimit="10" points="109.591,138.564 
			115.949,158.818 100.017,144.551 		"/>
		<polyline opacity="0.85" fill="#7D53A2" stroke="#7D53A2" stroke-width="5" stroke-miterlimit="10" points="129.107,124.082 
			137.545,143.562 120.208,131.03 		"/>
	</g>
	<rect fill="#FFFFFF" width="255.12" height="113.385"/>
</g>
<g id="Layer_3">
	<g>
		<path opacity="0.85" fill="#7D53A2" d="M118.476,56.054c0-10.424,3.6-19.29,10.8-26.651c7.146-7.362,15.904-11.016,26.168-11.016
			c10.316,0,19.021,3.708,26.168,11.123c7.146,7.361,10.693,16.228,10.693,26.544c0,10.264-3.547,19.076-10.693,26.438
			c-7.146,7.361-15.852,11.014-26.168,11.014c-10.264,0-19.021-3.652-26.168-11.014C122.075,75.13,118.476,66.318,118.476,56.054"/>
		<path opacity="0.82" fill="#5FBF8A" d="M62.815,56.451c0-10.425,3.6-19.291,10.799-26.652
			c7.146-7.361,15.906-11.016,26.168-11.016c10.318,0,19.021,3.708,26.168,11.123c7.147,7.361,10.694,16.228,10.694,26.545
			c0,10.263-3.547,19.075-10.694,26.436c-7.146,7.361-15.85,11.016-26.168,11.016c-10.262,0-19.021-3.654-26.168-11.016
			C66.415,75.526,62.815,66.713,62.815,56.451"/>
		<path fill="#FFFFFF" stroke="#FFFFFF" stroke-width="0.75" stroke-miterlimit="10" d="M131.734,57.05l-0.176,0.127
			c-0.48,0.336-1.631,1.345-1.631,2.289c0,0.319,0.191,0.623,0.512,0.623c0.719,0,1.471-1.071,1.471-2.063
			C131.91,57.658,131.848,57.337,131.734,57.05 M132.088,56.554l0.096-0.064c0.672-0.448,1.199-0.912,1.312-1.008
			c0.576-0.512,1.024-0.832,1.024-1.695c0-0.385-0.416-0.609-0.801-0.609c-0.959,0-1.824,0.896-2.719,1.841
			C131.432,55.498,131.848,55.946,132.088,56.554z M129.56,52.25c0.72-0.367,1.392-0.735,1.983-1.104
			c1.535-0.928,2.608-2.08,2.608-3.152c0-0.447-0.416-0.752-0.864-0.752c-2.209,0-3.776,2.305-3.776,4.24
			c0,0.271,0.018,0.527,0.049,0.752V52.25z M126.694,62.858c-0.959,0.624-1.951,1.264-3.359,1.264c-1.791,0-3.168-1.521-3.168-3.312
			c0-2.112,1.633-4.145,3.84-5.568c1.328-0.848,2.848-1.632,4.305-2.368c-0.033-0.159-0.049-0.336-0.049-0.512
			c0-1.664,2.128-5.328,4.96-5.328c0.625,0,1.328,0.48,1.328,0.912c0,1.392-1.473,2.479-3.375,3.664
			c-0.514,0.319-1.057,0.624-1.616,0.912c0.191,1.088,0.704,1.76,1.231,2.368c0.961-0.992,1.873-1.904,3.12-1.904
			c0.479,0,0.992,0.256,0.992,0.736c0,0.928-0.496,1.408-1.185,1.92c-0.48,0.367-1.055,0.752-1.6,1.136
			c0.096,0.288,0.145,0.608,0.145,0.976c0,1.297-0.816,2.592-2.113,2.592c-0.399,0-0.702-0.336-0.702-0.735
			c0-0.896,1.022-1.904,2.159-2.736c-0.256-0.512-0.672-0.928-1.121-1.327c-1.583,1.808-3.007,4.399-5.438,4.399
			c-0.592,0-1.281-0.224-1.281-0.815c0-0.353,0.16-0.736,0.512-0.736c0.305,0,0.594,0.207,0.594,0.512
			c0,0.256-0.193,0.496-0.369,0.544c0.049,0.16,0.4,0.32,0.705,0.32c2.207,0,3.471-2.608,5.103-4.368
			c-0.782-0.672-1.632-1.312-1.919-2.288c-1.697,0.849-3.457,1.712-4.865,2.864c-1.68,1.376-2.879,2.896-2.879,5.088
			c0,1.504,1.152,2.816,2.656,2.816c1.344,0,2.639-0.656,3.264-1.121L126.694,62.858z"/>
		<path fill="#FFFFFF" stroke="#FFFFFF" stroke-width="0.75" stroke-miterlimit="10" d="M145.27,67.037
			c2.721-2.822,5.577-6.015,6.82-7.594l1.243-1.68h4.771c-2.823,3.091-4.032,4.435-5.813,6.148c-4.535,4.301-8.5,7.09-9.576,7.09
			c-0.302,0-0.436-0.102-0.436-0.37c0-0.571,1.142-1.646,3.023-3.595H145.27z M168.117,57.225l-8.77-0.034
			c0.402-0.369,0.537-0.504,1.108-1.074c8.231-8.333,12.532-11.323,18.715-11.323c3.864,0,5.847,1.68,5.847,4.905
			c0,4.334-4.133,8.064-8.803,8.064c-2.789,0-4.301-1.109-4.301-3.227c0-2.889,3.427-5.611,7.426-5.846v-0.303
			c-4.436,0.303-8.098,3.058-8.098,6.115c0,2.252,1.78,3.596,4.805,3.596c5.375,0,10.214-3.83,10.214-8.064
			c0-3.494-2.62-5.577-7.09-5.577c-3.058,0-7.29,0.235-15.288,7.56c-4.469,4.066-5.274,5.174-5.274,5.174h-4.905
			c1.41-2.116,4.031-5.745,4.031-9.037c0-2.387-1.311-3.696-3.662-3.696c-3.359,0-7.694,3.729-7.694,6.753
			c0,1.277,0.84,2.285,2.05,2.285c1.713,0,3.494-1.311,4.703-3.527l-0.168-0.068c-1.344,2.117-2.957,3.293-4.469,3.293
			c-1.008,0-1.578-0.705-1.578-1.814c0-2.52,3.965-6.652,7.09-6.652c1.611,0,2.418,0.705,2.418,2.049c0,1.85-0.705,3.797-2.553,6.99
			c-0.807,1.444-1.176,2.016-2.15,3.426l-3.864,0.102c-0.739,0.033-1.177,0.067-2.218,0.135l-0.135,0.168
			c1.781,0,2.521,0,3.998,0.066c0.807,0,1.277,0.067,1.916,0.067l-2.957,3.831c-3.158,4.232-6.72,7.357-6.72,9.004
			c0,0.403,0.37,0.74,0.84,0.74l0.101-0.035c1.512-0.1,5.779-3.393,7.291-4.703c1.916-1.613,5.141-4.704,8.972-8.904h7.089
			c0.538,0,0.908,0,1.883-0.066L168.117,57.225z"/>
		<path fill="#FFFFFF" stroke="#FFFFFF" stroke-width="0.75" stroke-miterlimit="10" d="M110.993,46.507
			c-2.42,0-5.107-0.538-8.131-1.613c1.779-0.471,3.594-0.672,5.879-0.672c3.193,0,5.174,0.504,5.174,1.277
			C113.915,46.137,112.808,46.507,110.993,46.507 M87.675,59.308c-1.277,2.184-2.621,3.932-4.1,5.107
			c-1.074-1.479-1.512-3.191-1.512-5.443c0-7.594,6.854-14.481,14.48-14.481c1.646,0,3.193,0.168,4.57,0.538
			c-1.58,0.639-3.359,1.68-4.771,2.789c-1.68,1.31-3.561,3.326-4.973,5.241C90.261,54.571,89.12,56.855,87.675,59.308z
			 M111.464,46.91c2.049,0,3.326-0.504,3.326-1.311c0-1.041-2.486-1.746-6.15-1.746c-3.291,0-6.047,0.672-6.617,0.771
			c0,0-3.496-0.57-4.939-0.57c-4.369,0-7.662,1.277-10.887,4.301c-3.227,3.023-4.738,6.25-4.738,10.146
			c0,3.293,1.176,5.478,1.682,6.25c-3.361,2.688-5.914,3.797-8.637,3.797c-1.479,0-2.352-0.303-3.629-1.243l-0.135,0.168
			c0.875,1.008,2.186,1.478,3.965,1.478c2.689,0,6.385-1.512,8.871-3.628c1.613,1.982,3.059,2.722,5.174,3.595
			c1.646,0.672,3.764,0.975,5.848,0.975c8.734,0,17.102-6.283,17.102-12.801c0-3.865-2.588-6.217-6.787-6.217
			c-2.52,0-5.309,1.008-7.459,2.688c-2.016,1.546-3.191,3.562-3.191,5.544c0,2.184,1.611,3.629,3.998,3.629
			c2.688,0,5.24-2.051,5.846-4.705l-0.234-0.066c-0.707,2.52-3.125,4.401-5.578,4.401c-2.016,0-3.393-1.243-3.393-3.024
			c0-1.881,1.141-3.896,3.09-5.477c1.982-1.612,4.57-2.586,6.787-2.586c3.293,0,5.275,1.813,5.275,4.871
			c0,2.957-2.15,6.82-5.375,9.609c-2.891,2.52-6.283,3.696-10.283,3.696c-4.434,0-8.902-1.849-10.449-4.503
			c3.26-2.688,4.469-4.133,7.527-9.072c2.52-4.064,3.662-5.678,5.242-7.189c0.738-0.739,1.545-1.411,2.385-1.982
			s1.479-1.008,2.855-1.512C101.954,45.197,106.827,46.91,111.464,46.91z"/>
	</g>
</g>
<g id="Layer_1">
	<line fill="none" stroke="#A7A9AC" stroke-width="0.5" stroke-miterlimit="10" x1="0" y1="113.385" x2="255.12" y2="113.385"/>
	<text transform="matrix(1 0 0 1 37.3931 162.8477)" font-family="'Byington'" font-size="16">ALINA BALZER-PETERS</text>
	<text transform="matrix(1 0 0 1 109.0742 190.0742)" font-family="'Byington'" font-size="18">- 2 -</text>
</g>
</svg>
